<svg width="300" height="300" viewBox="0 0 300 300" fill="none" xmlns="http://www.w3.org/2000/svg">
<circle cx="150" cy="143" r="100" fill="#D9D9D9"/>
<circle cx="181.474" cy="117" r="10" fill="black"/>
<circle cx="181.474" cy="117" r="2" fill="#D9D9D9"/>
<circle cx="119.474" cy="117" r="10" fill="black"/>
<circle cx="119.474" cy="117" r="2" fill="#D9D9D9"/>
<path d="M121 151C121 151 132.5 155 149 155.5C165.5 156 177 151 177 151C177 151 177.149 152.674 175 157C172.851 161.326 164 168 149 168C134 168 125.149 161.326 123 157C120.851 152.674 121 151 121 151Z" fill="black"/>
<path d="M121 151C121 151 132.5 157 149 157.5C165.5 158 177 151 177 151C177 151 176.149 158.674 174 163C171.851 167.326 164 179 149 179C134 179 126.149 167.326 124 163C121.851 158.674 121 151 121 151Z" fill="black"/>
<path d="M58.8909 150.028C50.8288 144.406 35.1156 127.733 36.7589 106.018C38.4023 84.3019 49.0565 70.9436 54.1782 66.9788" stroke="#D9D9D9" stroke-width="21"/>
<path d="M51.0782 74.3401C51.6389 77.217 57.3674 78.5216 63.8724 77.2537C70.3773 75.9858 75.1964 72.6255 74.6357 69.7486C74.193 67.4785 70.5326 66.1898 65.8122 66.3693C69.805 60.5643 69.995 53.0014 65.7408 47.6495C60.4139 40.9484 50.1376 40.252 42.7879 46.0943C35.4383 51.9366 33.7989 62.1049 39.1257 68.8061C42.0511 72.4862 46.4688 74.3555 51.0751 74.3252C51.0761 74.3302 51.0772 74.3351 51.0782 74.3401Z" fill="#D9D9D9"/>
<path d="M240.755 150.028C248.817 144.406 264.53 127.733 262.887 106.018C261.243 84.3019 250.589 70.9436 245.467 66.9789" stroke="#D9D9D9" stroke-width="21"/>
<path d="M249.012 74.3402C248.451 77.2171 242.723 78.5216 236.218 77.2537C229.713 75.9858 224.894 72.6255 225.454 69.7486C225.897 67.4786 229.558 66.1898 234.278 66.3693C230.285 60.5643 230.095 53.0014 234.349 47.6495C239.676 40.9484 249.952 40.2521 257.302 46.0943C264.652 51.9366 266.291 62.105 260.964 68.8061C258.039 72.4862 253.621 74.3555 249.015 74.3252C249.014 74.3302 249.013 74.3352 249.012 74.3402Z" fill="#D9D9D9"/>
<path d="M115.474 223.5C114.474 231.833 112.574 250.4 112.974 258C113.374 265.6 113.141 270.833 112.974 272.5" stroke="#D9D9D9" stroke-width="21"/>
<path d="M103.474 265C117.834 265 129.474 271.132 129.474 278.696C129.474 279.454 128.798 280 128.033 280H78.9162C78.1505 280 77.4745 279.454 77.4745 278.696C77.4745 271.132 89.1151 265 103.474 265Z" fill="#D9D9D9"/>
<path d="M185.474 223.5C186.474 231.833 188.374 250.4 187.974 258C187.574 265.6 187.808 270.833 187.974 272.5" stroke="#D9D9D9" stroke-width="21"/>
<path d="M197.474 265C183.115 265 171.474 271.132 171.474 278.696C171.474 279.454 172.151 280 172.916 280H222.033C222.798 280 223.474 279.454 223.474 278.696C223.474 271.132 211.834 265 197.474 265Z" fill="#D9D9D9"/>
<line x1="110" y1="96" x2="130" y2="96" stroke="black" stroke-width="4"/>
<line x1="171" y1="96" x2="191" y2="96" stroke="black" stroke-width="4"/>
</svg>
