<svg width="260" height="260" viewBox="0 0 260 260" fill="none" xmlns="http://www.w3.org/2000/svg">
<circle cx="130.474" cy="123" r="100" fill="#D9D9D9"/>
<circle cx="161.474" cy="97" r="10" fill="black"/>
<circle cx="161.474" cy="97" r="2" fill="#D9D9D9"/>
<circle cx="99.4745" cy="97" r="10" fill="black"/>
<circle cx="99.4745" cy="97" r="2" fill="#D9D9D9"/>
<path d="M129.974 107L134.738 115.25H125.211L129.974 107Z" fill="black"/>
<path d="M156.474 131.5H100.974C100.974 131.5 109.749 151.951 128.974 151.5C148.2 151.049 156.474 131.5 156.474 131.5Z" fill="black" stroke="black"/>
<rect x="89.4745" y="74" width="20" height="3" fill="black"/>
<rect x="151.474" y="74" width="20" height="3" fill="black"/>
<path d="M47.4745 107C38.232 110.344 18.7389 122.382 14.7058 143.783C10.6727 165.184 17.5065 180.845 21.4276 186" stroke="#D9D9D9" stroke-width="21"/>
<path d="M19.9091 177.972C21.1953 175.338 27.0662 175.561 33.0214 178.469C38.9765 181.378 42.7617 185.871 41.4755 188.504C40.4603 190.582 36.5911 190.88 32.078 189.485C34.4323 196.125 32.6584 203.48 27.164 207.548C20.2843 212.642 10.1779 210.655 4.59072 203.11C-0.996328 195.564 0.0518956 185.318 6.93154 180.224C10.7097 177.427 15.4607 176.764 19.9022 177.986C19.9045 177.981 19.9068 177.977 19.9091 177.972Z" fill="#D9D9D9"/>
<path d="M213.475 107C222.717 110.344 242.21 122.382 246.243 143.783C250.276 165.184 243.442 180.845 239.521 186" stroke="#D9D9D9" stroke-width="21"/>
<path d="M241.04 177.972C239.754 175.338 233.883 175.561 227.928 178.469C221.972 181.378 218.187 185.871 219.473 188.504C220.489 190.582 224.358 190.88 228.871 189.485C226.517 196.125 228.291 203.48 233.785 207.548C240.665 212.642 250.771 210.655 256.358 203.11C261.945 195.564 260.897 185.318 254.017 180.224C250.239 177.427 245.488 176.764 241.047 177.986C241.045 177.981 241.042 177.977 241.04 177.972Z" fill="#D9D9D9"/>
<path d="M95.4745 203.5C94.4745 211.833 92.5745 230.4 92.9745 238C93.3745 245.6 93.1411 250.833 92.9745 252.5" stroke="#D9D9D9" stroke-width="21"/>
<path d="M83.4745 245C97.8339 245 109.474 251.132 109.474 258.696C109.474 259.454 108.798 260 108.033 260H58.9162C58.1505 260 57.4745 259.454 57.4745 258.696C57.4745 251.132 69.1151 245 83.4745 245Z" fill="#D9D9D9"/>
<path d="M165.474 203.5C166.474 211.833 168.374 230.4 167.974 238C167.574 245.6 167.808 250.833 167.974 252.5" stroke="#D9D9D9" stroke-width="21"/>
<path d="M177.474 245C163.115 245 151.474 251.132 151.474 258.696C151.474 259.454 152.151 260 152.916 260H202.033C202.798 260 203.474 259.454 203.474 258.696C203.474 251.132 191.834 245 177.474 245Z" fill="#D9D9D9"/>
</svg>
