<svg width="300" height="300" viewBox="0 0 300 300" fill="none" xmlns="http://www.w3.org/2000/svg">
<circle cx="150.474" cy="143" r="100" fill="#D9D9D9"/>
<circle cx="181.474" cy="117" r="10" fill="black"/>
<circle cx="181.474" cy="117" r="2" fill="#D9D9D9"/>
<circle cx="119.474" cy="117" r="10" fill="black"/>
<circle cx="119.474" cy="117" r="2" fill="#D9D9D9"/>
<path d="M121 151C121 151 132.5 155 149 155.5C165.5 156 177 151 177 151C177 151 177.149 152.674 175 157C172.851 161.326 164 168 149 168C134 168 125.149 161.326 123 157C120.851 152.674 121 151 121 151Z" fill="black"/>
<path d="M121 151C121 151 132.5 157 149 157.5C165.5 158 177 151 177 151C177 151 176.149 158.674 174 163C171.851 167.326 164 179 149 179C134 179 126.149 167.326 124 163C121.851 158.674 121 151 121 151Z" fill="black"/>
<rect x="109.474" y="94" width="20" height="3" fill="black"/>
<rect x="171.474" y="94" width="20" height="3" fill="black"/>
<path d="M67.4745 127C58.232 130.344 38.7389 142.382 34.7058 163.783C30.6727 185.184 37.5065 200.845 41.4276 206" stroke="#D9D9D9" stroke-width="21"/>
<path d="M39.9091 197.972C41.1953 195.338 47.0662 195.561 53.0214 198.469C58.9765 201.377 62.7617 205.871 61.4755 208.504C60.4603 210.582 56.5911 210.88 52.078 209.485C54.4323 216.125 52.6584 223.48 47.164 227.548C40.2843 232.642 30.1779 230.655 24.5907 223.11C19.0037 215.564 20.0519 205.318 26.9315 200.224C30.7097 197.426 35.4607 196.764 39.9022 197.986C39.9045 197.981 39.9068 197.977 39.9091 197.972Z" fill="#D9D9D9"/>
<path d="M235.142 107.47C239.427 98.625 244.988 76.3992 232.941 58.2569C220.894 40.1146 205.07 33.6674 198.664 32.7116" stroke="#D9D9D9" stroke-width="21"/>
<path d="M184.837 22.84C182.1 21.791 177.958 25.9577 175.586 32.1461C173.214 38.3345 173.51 44.202 176.247 45.251C178.407 46.0785 181.439 43.6572 183.789 39.559C186.596 46.0213 192.909 50.1902 199.702 49.4184C208.207 48.452 214.244 40.1062 213.184 30.7774C212.124 21.4486 204.369 14.67 195.864 15.6363C191.193 16.167 187.266 18.9229 184.851 22.8453C184.846 22.8435 184.841 22.8418 184.837 22.84Z" fill="#D9D9D9"/>
<path d="M115.474 223.5C114.474 231.833 112.574 250.4 112.974 258C113.374 265.6 113.141 270.833 112.974 272.5" stroke="#D9D9D9" stroke-width="21"/>
<path d="M103.474 265C117.834 265 129.474 271.132 129.474 278.696C129.474 279.454 128.798 280 128.033 280H78.9162C78.1505 280 77.4745 279.454 77.4745 278.696C77.4745 271.132 89.1151 265 103.474 265Z" fill="#D9D9D9"/>
<path d="M185.474 223.5C186.474 231.833 188.374 250.4 187.974 258C187.574 265.6 187.808 270.833 187.974 272.5" stroke="#D9D9D9" stroke-width="21"/>
<path d="M197.474 265C183.115 265 171.474 271.132 171.474 278.696C171.474 279.454 172.151 280 172.916 280H222.033C222.798 280 223.474 279.454 223.474 278.696C223.474 271.132 211.834 265 197.474 265Z" fill="#D9D9D9"/>
</svg>
