<svg width="300" height="300" viewBox="0 0 300 300" fill="none" xmlns="http://www.w3.org/2000/svg">
<circle cx="150.474" cy="143" r="100" fill="#D9D9D9"/>
<circle cx="181.474" cy="117" r="10" fill="black"/>
<circle cx="181.474" cy="117" r="2" fill="#D9D9D9"/>
<circle cx="119.474" cy="117" r="10" fill="black"/>
<circle cx="119.474" cy="117" r="2" fill="#D9D9D9"/>
<path d="M121 151C121 151 129.5 157.5 149 157.5C168.5 157.5 177 151 177 151V153C177 153 168 169 149 169C130 169 121 153 121 153V151Z" fill="black"/>
<path d="M149.974 127L154.738 135.25H145.211L149.974 127Z" fill="black"/>
<rect x="109.474" y="94" width="20" height="3" fill="black"/>
<rect x="171.474" y="94" width="20" height="3" fill="black"/>
<path d="M67.4745 127C58.232 130.344 38.7389 142.382 34.7058 163.783C30.6727 185.184 37.5065 200.845 41.4276 206" stroke="#D9D9D9" stroke-width="21"/>
<path d="M39.9091 197.972C41.1953 195.338 47.0662 195.561 53.0214 198.469C58.9765 201.378 62.7617 205.871 61.4755 208.504C60.4603 210.582 56.5911 210.88 52.078 209.485C54.4323 216.125 52.6584 223.48 47.164 227.548C40.2843 232.642 30.1779 230.655 24.5907 223.11C19.0037 215.564 20.0519 205.318 26.9315 200.224C30.7097 197.427 35.4607 196.764 39.9022 197.986C39.9045 197.981 39.9068 197.977 39.9091 197.972Z" fill="#D9D9D9"/>
<path d="M233.475 127C242.717 130.344 262.21 142.382 266.243 163.783C270.276 185.184 263.442 200.845 259.521 206" stroke="#D9D9D9" stroke-width="21"/>
<path d="M261.04 197.972C259.754 195.338 253.883 195.561 247.928 198.469C241.972 201.378 238.187 205.871 239.473 208.504C240.489 210.582 244.358 210.88 248.871 209.485C246.517 216.125 248.291 223.48 253.785 227.548C260.665 232.642 270.771 230.655 276.358 223.11C281.945 215.564 280.897 205.318 274.017 200.224C270.239 197.427 265.488 196.764 261.047 197.986C261.045 197.981 261.042 197.977 261.04 197.972Z" fill="#D9D9D9"/>
<path d="M115.474 223.5C114.474 231.833 112.574 250.4 112.974 258C113.374 265.6 113.141 270.833 112.974 272.5" stroke="#D9D9D9" stroke-width="21"/>
<path d="M103.474 265C117.834 265 129.474 271.132 129.474 278.696C129.474 279.454 128.798 280 128.033 280H78.9162C78.1505 280 77.4745 279.454 77.4745 278.696C77.4745 271.132 89.1151 265 103.474 265Z" fill="#D9D9D9"/>
<path d="M185.474 223.5C186.474 231.833 188.374 250.4 187.974 258C187.574 265.6 187.808 270.833 187.974 272.5" stroke="#D9D9D9" stroke-width="21"/>
<path d="M197.474 265C183.115 265 171.474 271.132 171.474 278.696C171.474 279.454 172.151 280 172.916 280H222.033C222.798 280 223.474 279.454 223.474 278.696C223.474 271.132 211.834 265 197.474 265Z" fill="#D9D9D9"/>
</svg>
