<svg width="300" height="300" viewBox="0 0 300 300" fill="none" xmlns="http://www.w3.org/2000/svg">
<circle cx="150" cy="143" r="100" fill="#D9D9D9"/>
<line x1="168.955" y1="109.419" x2="181.955" y2="86.9019" stroke="black" stroke-width="2"/>
<ellipse cx="207.999" cy="148" rx="21" ry="7" fill="#00E1FF"/>
<rect x="196.999" y="116" width="14" height="28" fill="#00E1FF"/>
<path d="M192.001 116.497C192.001 116.497 202.947 109.538 211.63 95.4987C220.313 81.4593 220.001 80 220.001 80C220.001 80 226.221 84.5738 228.893 88.5981C231.565 92.6223 233.75 96.2583 226.25 109.249C218.75 122.239 208.714 120.201 203.893 119.899C199.072 119.597 192.001 116.497 192.001 116.497Z" fill="black"/>
<path d="M107 148C110.344 157.242 122.382 176.736 143.783 180.769C165.184 184.802 180.845 177.968 186 174.047" stroke="#D9D9D9" stroke-width="21"/>
<path d="M178.087 175.136C175.453 173.85 175.676 167.979 178.584 162.024C181.493 156.069 185.986 152.283 188.619 153.57C190.697 154.585 190.995 158.454 189.6 162.967C196.24 160.613 203.595 162.387 207.663 167.881C212.757 174.761 210.77 184.867 203.225 190.454C195.679 196.041 185.433 194.993 180.339 188.114C177.542 184.335 176.879 179.584 178.101 175.143C178.096 175.141 178.092 175.138 178.087 175.136Z" fill="#D9D9D9"/>
<path d="M220 197C228.333 196 246.9 194.1 254.5 194.5C262.1 194.9 267.333 194.667 269 194.5" stroke="#D9D9D9" stroke-width="21"/>
<path d="M261.5 185C261.5 199.359 267.632 211 275.196 211C275.954 211 276.5 210.324 276.5 209.558L276.5 160.442C276.5 159.676 275.954 159 275.196 159C267.632 159 261.5 170.641 261.5 185Z" fill="#D9D9D9"/>
<line x1="152.268" y1="96.3205" x2="162.268" y2="79" stroke="black" stroke-width="4"/>
</svg>
